<svg width="60" height="56" viewBox="0 0 60 56" fill="none" xmlns="http://www.w3.org/2000/svg">
<path d="M58.125 0.5H41.875C40.84 0.5 40 1.34 40 2.375V17.375H1.875C0.84 17.375 0 18.215 0 19.25V53.625C0 54.66 0.84 55.5 1.875 55.5H48.125V21.75C48.125 20.715 48.965 19.875 50 19.875C51.035 19.875 51.875 20.715 51.875 21.75V55.5H58.125C59.16 55.5 60 54.66 60 53.625V2.375C60 1.34 59.16 0.5 58.125 0.5ZM12.5 43.625C12.5 44.66 11.66 45.5 10.625 45.5H9.375C8.34 45.5 7.5 44.66 7.5 43.625V42.375C7.5 41.34 8.34 40.5 9.375 40.5H10.625C11.66 40.5 12.5 41.34 12.5 42.375V43.625ZM12.5 31.125C12.5 32.16 11.66 33 10.625 33H9.375C8.34 33 7.5 32.16 7.5 31.125V29.875C7.5 28.84 8.34 28 9.375 28H10.625C11.66 28 12.5 28.84 12.5 29.875V31.125ZM22.5 43.625C22.5 44.66 21.66 45.5 20.625 45.5H19.375C18.34 45.5 17.5 44.66 17.5 43.625V42.375C17.5 41.34 18.34 40.5 19.375 40.5H20.625C21.66 40.5 22.5 41.34 22.5 42.375V43.625ZM22.5 31.125C22.5 32.16 21.66 33 20.625 33H19.375C18.34 33 17.5 32.16 17.5 31.125V29.875C17.5 28.84 18.34 28 19.375 28H20.625C21.66 28 22.5 28.84 22.5 29.875V31.125ZM32.5 43.625C32.5 44.66 31.66 45.5 30.625 45.5H29.375C28.34 45.5 27.5 44.66 27.5 43.625V42.375C27.5 41.34 28.34 40.5 29.375 40.5H30.625C31.66 40.5 32.5 41.34 32.5 42.375V43.625ZM32.5 31.125C32.5 32.16 31.66 33 30.625 33H29.375C28.34 33 27.5 32.16 27.5 31.125V29.875C27.5 28.84 28.34 28 29.375 28H30.625C31.66 28 32.5 28.84 32.5 29.875V31.125ZM42.5 43.625C42.5 44.66 41.66 45.5 40.625 45.5H39.375C38.34 45.5 37.5 44.66 37.5 43.625V42.375C37.5 41.34 38.34 40.5 39.375 40.5H40.625C41.66 40.5 42.5 41.34 42.5 42.375V43.625ZM42.5 31.125C42.5 32.16 41.66 33 40.625 33H39.375C38.34 33 37.5 32.16 37.5 31.125V29.875C37.5 28.84 38.34 28 39.375 28H40.625C41.66 28 42.5 28.84 42.5 29.875V31.125ZM53.125 13.625H46.875C45.84 13.625 45 12.785 45 11.75C45 10.715 45.84 9.875 46.875 9.875H53.125C54.16 9.875 55 10.715 55 11.75C55 12.785 54.16 13.625 53.125 13.625Z" fill="#1F50FE"/>
</svg>
