<svg width="34" height="26" viewBox="0 0 34 26" fill="none" xmlns="http://www.w3.org/2000/svg">
<path d="M4.56758 0V10.0882C5.53172 7.92475 7.35418 6.84303 10.035 6.84303C11.7751 6.84303 13.1743 7.39565 14.2325 8.50088C15.3142 9.5826 15.8551 11.1581 15.8551 13.2275V24.9383H11.6223V13.9683C11.6223 12.8395 11.3283 11.9577 10.7404 11.3228C10.176 10.6878 9.43531 10.3704 8.5182 10.3704C7.50703 10.3704 6.58992 10.7584 5.76688 11.5344C4.96735 12.3104 4.56758 13.5802 4.56758 15.3439V24.9383H0.334778V0H4.56758Z" fill="white"/>
<path d="M22.3811 0.894531V10.9827C23.3452 8.81928 25.1677 7.73756 27.8484 7.73756C29.5886 7.73756 30.9878 8.29018 32.046 9.39541C33.1277 10.4771 33.6685 12.0527 33.6685 14.122V25.8328H29.4357V14.8628C29.4357 13.734 29.1418 12.8522 28.5539 12.2173C27.9895 11.5824 27.2488 11.2649 26.3317 11.2649C25.3205 11.2649 24.4034 11.6529 23.5804 12.4289C22.7808 13.2049 22.3811 14.4748 22.3811 16.2384V25.8328H18.1483V0.894531H22.3811Z" fill="white"/>
</svg>
