<svg width="0" height="0" class="hidden">
  <symbol fill="none" xmlns="http://www.w3.org/2000/svg" viewBox="0 0 22 22" id="arrow-top">
    <path d="M10 21.6671V4.13374L1.73337 12.4004L0.333374 11.0004L11 0.33374L21.6667 11.0004L20.2667 12.4004L12 4.13374V21.6671H10Z" fill="#1F50FE"></path>
  </symbol>
  <symbol fill="none" xmlns="http://www.w3.org/2000/svg" viewBox="0 0 20 20" id="blank">
    <path d="M2.725 19.6251C2.075 19.6251 1.52083 19.3959 1.0625 18.9376C0.604167 18.4793 0.375 17.9251 0.375 17.2751V2.7251C0.375 2.0751 0.604167 1.51676 1.0625 1.0501C1.52083 0.583431 2.075 0.350098 2.725 0.350098H9.475V2.7251H2.725V17.2751H17.275V10.5251H19.65V17.2751C19.65 17.9251 19.4167 18.4793 18.95 18.9376C18.4833 19.3959 17.925 19.6251 17.275 19.6251H2.725ZM8.125 13.5251L6.5 11.8751L15.65 2.7251H10.975V0.350098H19.65V9.0251H17.275V4.3751L8.125 13.5251Z" fill="#1F50FE"></path>
  </symbol>
  <symbol fill="none" xmlns="http://www.w3.org/2000/svg" viewBox="0 0 11 3" id="minus">
    <path d="M10.25 2.53125V0H0V2.53125H10.25Z" fill="white"></path>
  </symbol>
  <symbol fill="none" xmlns="http://www.w3.org/2000/svg" viewBox="0 0 18 18" id="phone-call">
    <path d="M3.62 7.79C5.06 10.62 7.38 12.93 10.21 14.38L12.41 12.18C12.68 11.91 13.08 11.82 13.43 11.94C14.55 12.31 15.76 12.51 17 12.51C17.55 12.51 18 12.96 18 13.51V17C18 17.55 17.55 18 17 18C7.61 18 0 10.39 0 1C0 0.45 0.45 0 1 0H4.5C5.05 0 5.5 0.45 5.5 1C5.5 2.25 5.7 3.45 6.07 4.57C6.18 4.92 6.1 5.31 5.82 5.59L3.62 7.79Z" fill="#1F50FE"></path>
  </symbol>
  <symbol fill="none" xmlns="http://www.w3.org/2000/svg" viewBox="0 0 15 16" id="x">
    <path fill-rule="evenodd" clip-rule="evenodd" d="M7.5 0.5C3.3525 0.5 0 3.8525 0 8C0 12.1475 3.3525 15.5 7.5 15.5C11.6475 15.5 15 12.1475 15 8C15 3.8525 11.6475 0.5 7.5 0.5ZM11.25 10.6925L10.1925 11.75L7.5 9.0575L4.8075 11.75L3.75 10.6925L6.4425 8L3.75 5.3075L4.8075 4.25L7.5 6.9425L10.1925 4.25L11.25 5.3075L8.5575 8L11.25 10.6925Z" fill="white"></path>
  </symbol>
  <symbol  xmlns="http://www.w3.org/2000/svg" viewBox="0 0 83 40" id="1c">
    <path d="M42.5583 34.6786C40.9732 34.5729 39.1455 34.295 37.7039 33.8776C37.4339 33.7993 36.3158 33.3883 36.0314 33.2579C31.0127 30.9331 27.5164 25.8583 27.5164 19.9706C27.5164 11.8952 34.0863 5.31751 42.1669 5.31751C50.1758 5.31751 56.7014 11.783 56.8135 19.7671H62.1063C61.9941 8.86599 53.0955 0.0313117 42.1669 0.0313117C31.1732 0.0313117 22.225 8.97427 22.225 19.9706C22.225 27.5516 26.4884 34.145 32.7308 37.5135C33.858 38.1097 35.4757 38.7241 36.0249 38.8924C37.8044 39.4221 39.9883 39.7743 41.9321 39.9217C42.5922 39.9713 44.8974 39.9974 45.5693 40H82.0169V34.7282H45.6306C45.1466 34.7282 43.0319 34.7099 42.5583 34.6786ZM45.6306 26.401C45.2458 26.401 43.2328 26.3879 42.861 26.3566C42.2308 26.3031 41.3176 26.2092 40.7306 26.0748C40.0678 25.8974 39.4456 25.6626 39.1651 25.5086C37.1991 24.4454 35.8592 22.3659 35.8592 19.9706C35.8592 16.4861 38.6811 13.6604 42.1669 13.6604C45.5797 13.6604 48.3546 16.3752 48.4655 19.7671H53.5508C53.4438 13.5703 48.3924 8.57637 42.1669 8.57637C35.8723 8.57637 30.77 13.6773 30.77 19.9706C30.77 24.4089 33.314 28.2417 37.019 30.119C37.5891 30.453 38.6615 30.8026 38.9668 30.8822C40.013 31.1575 41.4181 31.3454 42.5583 31.4289C42.9797 31.4641 45.0435 31.4797 45.4793 31.4823V31.4902H82.0156V26.401H45.6306ZM18.9635 39.9804H13.6356V5.32925H5.84978V1.39284e-06H18.9635V39.9804ZM0 7.99191V13.1163H5.84978V39.9804H10.969V7.99191H0Z"></path>
  </symbol>
</svg>