<svg width="0" height="0" class="hidden">
 <symbol fill="none" xmlns="http://www.w3.org/2000/svg" viewBox="0 0 14 10" id="check">
    <path d="M13 1L4.75 9 1 5.364" stroke="#fff" stroke-width="2" stroke-linecap="round" stroke-linejoin="round"></path>
  </symbol>
  <symbol  xmlns="http://www.w3.org/2000/svg" viewBox="0 0 22 22" id="arrow-top">
    <path d="M10 21.6671V4.13374L1.73337 12.4004L0.333374 11.0004L11 0.33374L21.6667 11.0004L20.2667 12.4004L12 4.13374V21.6671H10Z"></path>
  </symbol>
  <symbol fill="none" xmlns="http://www.w3.org/2000/svg" viewBox="0 0 20 20" id="blank">
    <path d="M2.725 19.6251C2.075 19.6251 1.52083 19.3959 1.0625 18.9376C0.604167 18.4793 0.375 17.9251 0.375 17.2751V2.7251C0.375 2.0751 0.604167 1.51676 1.0625 1.0501C1.52083 0.583431 2.075 0.350098 2.725 0.350098H9.475V2.7251H2.725V17.2751H17.275V10.5251H19.65V17.2751C19.65 17.9251 19.4167 18.4793 18.95 18.9376C18.4833 19.3959 17.925 19.6251 17.275 19.6251H2.725ZM8.125 13.5251L6.5 11.8751L15.65 2.7251H10.975V0.350098H19.65V9.0251H17.275V4.3751L8.125 13.5251Z" fill="#1F50FE"></path>
  </symbol>
  <symbol  xmlns="http://www.w3.org/2000/svg" viewBox="0 0 11 11" id="plus">
    <path d="M10.25 6.39062V3.85938H0V6.39062H10.25Z" ></path>
    <path d="M6.39062 0H3.85938L3.85938 10.25H6.39062V0Z" ></path>
  </symbol>
  <symbol  xmlns="http://www.w3.org/2000/svg" viewBox="0 0 11 3" id="minus">
    <path d="M10.25 2.53125V0H0V2.53125H10.25Z" ></path>
  </symbol>
  <symbol fill="none" xmlns="http://www.w3.org/2000/svg" viewBox="0 0 18 18" id="phone-call">
    <path d="M3.62 7.79C5.06 10.62 7.38 12.93 10.21 14.38L12.41 12.18C12.68 11.91 13.08 11.82 13.43 11.94C14.55 12.31 15.76 12.51 17 12.51C17.55 12.51 18 12.96 18 13.51V17C18 17.55 17.55 18 17 18C7.61 18 0 10.39 0 1C0 0.45 0.45 0 1 0H4.5C5.05 0 5.5 0.45 5.5 1C5.5 2.25 5.7 3.45 6.07 4.57C6.18 4.92 6.1 5.31 5.82 5.59L3.62 7.79Z" fill="#1F50FE"></path>
  </symbol>
  <symbol fill="none" xmlns="http://www.w3.org/2000/svg" viewBox="0 0 15 16" id="x">
    <path fill-rule="evenodd" clip-rule="evenodd" d="M7.5 0.5C3.3525 0.5 0 3.8525 0 8C0 12.1475 3.3525 15.5 7.5 15.5C11.6475 15.5 15 12.1475 15 8C15 3.8525 11.6475 0.5 7.5 0.5ZM11.25 10.6925L10.1925 11.75L7.5 9.0575L4.8075 11.75L3.75 10.6925L6.4425 8L3.75 5.3075L4.8075 4.25L7.5 6.9425L10.1925 4.25L11.25 5.3075L8.5575 8L11.25 10.6925Z" fill="white"></path>
  </symbol>
  <symbol  xmlns="http://www.w3.org/2000/svg" viewBox="0 0 83 40" id="1c">
    <path d="M42.5583 34.6786C40.9732 34.5729 39.1455 34.295 37.7039 33.8776C37.4339 33.7993 36.3158 33.3883 36.0314 33.2579C31.0127 30.9331 27.5164 25.8583 27.5164 19.9706C27.5164 11.8952 34.0863 5.31751 42.1669 5.31751C50.1758 5.31751 56.7014 11.783 56.8135 19.7671H62.1063C61.9941 8.86599 53.0955 0.0313117 42.1669 0.0313117C31.1732 0.0313117 22.225 8.97427 22.225 19.9706C22.225 27.5516 26.4884 34.145 32.7308 37.5135C33.858 38.1097 35.4757 38.7241 36.0249 38.8924C37.8044 39.4221 39.9883 39.7743 41.9321 39.9217C42.5922 39.9713 44.8974 39.9974 45.5693 40H82.0169V34.7282H45.6306C45.1466 34.7282 43.0319 34.7099 42.5583 34.6786ZM45.6306 26.401C45.2458 26.401 43.2328 26.3879 42.861 26.3566C42.2308 26.3031 41.3176 26.2092 40.7306 26.0748C40.0678 25.8974 39.4456 25.6626 39.1651 25.5086C37.1991 24.4454 35.8592 22.3659 35.8592 19.9706C35.8592 16.4861 38.6811 13.6604 42.1669 13.6604C45.5797 13.6604 48.3546 16.3752 48.4655 19.7671H53.5508C53.4438 13.5703 48.3924 8.57637 42.1669 8.57637C35.8723 8.57637 30.77 13.6773 30.77 19.9706C30.77 24.4089 33.314 28.2417 37.019 30.119C37.5891 30.453 38.6615 30.8026 38.9668 30.8822C40.013 31.1575 41.4181 31.3454 42.5583 31.4289C42.9797 31.4641 45.0435 31.4797 45.4793 31.4823V31.4902H82.0156V26.401H45.6306ZM18.9635 39.9804H13.6356V5.32925H5.84978V1.39284e-06H18.9635V39.9804ZM0 7.99191V13.1163H5.84978V39.9804H10.969V7.99191H0Z"></path>
  </symbol>

  <symbol fill="none" xmlns="http://www.w3.org/2000/svg" viewBox="0 0 60 60" id="developers">
    <g clip-path="url(#clip0_0_351)">
      <path d="M52.5 2.5H7.5C3.375 2.5 0 5.875 0 10V50C0 54.125 3.375 57.5 7.5 57.5H52.5C56.625 57.5 60 54.125 60 50V10C60 5.875 56.625 2.5 52.5 2.5ZM55 50C55 51.375 53.875 52.5 52.5 52.5H7.5C6.125 52.5 5 51.375 5 50V15H55V50Z" fill="#1A233B"></path>
      <path d="M40.4445 41.1241C39.8822 41.1241 39.3198 40.9323 38.8582 40.5357C37.8376 39.6581 37.7173 38.1206 38.5949 37.0967L42.1088 32.9978L38.5917 28.8956C37.7141 27.8749 37.8343 26.3342 38.855 25.4566C39.8789 24.5789 41.4164 24.6992 42.294 25.7198L47.1698 31.4083C47.9532 32.3217 47.9532 33.6674 47.1698 34.584L42.294 40.2724C41.813 40.8348 41.1304 41.1241 40.4445 41.1241Z" fill="#1A233B"></path>
      <path d="M19.3161 41.1246C18.6303 41.1246 17.9476 40.8353 17.4633 40.273L12.5875 34.5846C11.8042 33.6712 11.8042 32.3254 12.5875 31.4088L17.4633 25.7204C18.3377 24.6965 19.8785 24.5795 20.9024 25.4603C21.923 26.338 22.0433 27.8755 21.1657 28.8994L17.6518 32.9983L21.1689 37.1005C22.0465 38.1211 21.9263 39.6619 20.9056 40.5395C20.444 40.9296 19.8785 41.1246 19.3161 41.1246Z" fill="#1A233B"></path>
      <path d="M26.8963 45.9384C25.5831 45.6361 24.7672 44.3261 25.0663 43.0162L29.9421 21.8878C30.2444 20.5746 31.5511 19.7717 32.8643 20.0577C34.1775 20.36 34.9934 21.67 34.6943 22.98L29.8185 44.1083C29.5227 45.3988 28.2388 46.2407 26.8963 45.9384Z" fill="#1A233B"></path>
    </g>
    <defs>
      <clipPath id="clip0_0_351">
        <rect width="60" height="60" fill="white"></rect>
      </clipPath>
    </defs>
  </symbol>
  <symbol fill="none" xmlns="http://www.w3.org/2000/svg" viewBox="0 0 60 60" id="analytics">
    <g clip-path="url(#clip0_0_374)">
      <path d="M52.5 2.5H7.5C3.365 2.5 0 5.865 0 10V50C0 54.135 3.365 57.5 7.5 57.5H52.5C56.635 57.5 60 54.135 60 50V10C60 5.865 56.635 2.5 52.5 2.5ZM52.5 52.5H7.5C6.1225 52.5 5 51.38 5 50V15H55V50C55 51.38 53.8775 52.5 52.5 52.5Z" fill="#1A233B"></path>
      <path d="M42.5 34.925C42.5 41.825 36.9 47.425 30 47.425C27.225 47.425 24.65 46.525 22.6 44.975L31.325 36.25C31.675 35.9 31.875 35.425 31.875 34.925V22.575C37.9 23.475 42.5 28.675 42.5 34.925Z" fill="#1A233B"></path>
      <path d="M28.125 22.575V34.15L19.95 42.325C18.4 40.275 17.5 37.7 17.5 34.925C17.5 28.675 22.1 23.475 28.125 22.575Z" fill="#1A233B"></path>
    </g>
    <defs>
      <clipPath id="clip0_0_374">
        <rect width="60" height="60" fill="white"></rect>
      </clipPath>
    </defs>
  </symbol>
  <symbol fill="none" xmlns="http://www.w3.org/2000/svg" viewBox="0 0 60 60" id="architectors">
    <g clip-path="url(#clip0_0_364)">
      <path d="M52.5 2.5H7.5C3.365 2.5 0 5.865 0 10V50C0 54.135 3.365 57.5 7.5 57.5H52.5C56.635 57.5 60 54.135 60 50V10C60 5.865 56.635 2.5 52.5 2.5ZM52.5 52.5H7.5C6.1225 52.5 5 51.38 5 50V15H55V50C55 51.38 53.8775 52.5 52.5 52.5Z" fill="#1A233B"></path>
      <path d="M48.125 37.5H44.375C41.9625 37.5 40 39.4625 40 41.875H31.875V28.125H40.32C41.1225 30.6525 43.4625 32.5 46.25 32.5C49.695 32.5 52.5 29.695 52.5 26.25C52.5 22.805 49.695 20 46.25 20C43.4625 20 41.1225 21.8475 40.32 24.375H19.68C18.8775 21.8475 16.5375 20 13.75 20C10.305 20 7.5 22.805 7.5 26.25C7.5 29.695 10.305 32.5 13.75 32.5C16.5375 32.5 18.8775 30.6525 19.68 28.125H28.125V41.875H20C20 39.4625 18.0375 37.5 15.625 37.5H11.875C9.4625 37.5 7.5 39.4625 7.5 41.875V45.625C7.5 48.0375 9.4625 50 11.875 50H15.625C18.0375 50 20 48.0375 20 45.625H40C40 48.0375 41.9625 50 44.375 50H48.125C50.5375 50 52.5 48.0375 52.5 45.625V41.875C52.5 39.4625 50.5375 37.5 48.125 37.5Z" fill="#1A233B"></path>
    </g>
    <defs>
      <clipPath id="clip0_0_364">
        <rect width="60" height="60" fill="white"></rect>
      </clipPath>
    </defs>
  </symbol>
</svg>